<?xml version="1.0" encoding="UTF-8" standalone="no"?>
<svg
   xmlns:dc="http://purl.org/dc/elements/1.1/"
   xmlns:cc="http://creativecommons.org/ns#"
   xmlns:rdf="http://www.w3.org/1999/02/22-rdf-syntax-ns#"
   xmlns:svg="http://www.w3.org/2000/svg"
   xmlns="http://www.w3.org/2000/svg"
   xmlns:sodipodi="http://sodipodi.sourceforge.net/DTD/sodipodi-0.dtd"
   xmlns:inkscape="http://www.inkscape.org/namespaces/inkscape"
   inkscape:export-ydpi="90.90538"
   inkscape:export-xdpi="90.90538"
   inkscape:export-filename="C:\Users\Valik\Desktop\Portfolio\bg.png"
   sodipodi:docname="bg1.svg"
   inkscape:version="1.0 (4035a4fb49, 2020-05-01)"
   id="svg8"
   version="1.1"
   viewBox="0 0 210 297"
   height="297mm"
   width="210mm">
  <defs
     id="defs2" />
  <sodipodi:namedview
     showguides="false"
     inkscape:window-maximized="0"
     inkscape:window-y="0"
     inkscape:window-x="130"
     inkscape:window-height="1040"
     inkscape:window-width="1274"
     showgrid="false"
     inkscape:document-rotation="0"
     inkscape:current-layer="layer1"
     inkscape:document-units="mm"
     inkscape:cy="715.72066"
     inkscape:cx="431.14033"
     inkscape:zoom="0.7"
     inkscape:pageshadow="2"
     inkscape:pageopacity="0.0"
     borderopacity="1.0"
     bordercolor="#666666"
     pagecolor="#ffffff"
     id="base">
    <inkscape:grid
       id="grid92"
       type="xygrid" />
  </sodipodi:namedview>
  <metadata
     id="metadata5">
    <rdf:RDF>
      <cc:Work
         rdf:about="">
        <dc:format>image/svg+xml</dc:format>
        <dc:type
           rdf:resource="http://purl.org/dc/dcmitype/StillImage" />
        <dc:title></dc:title>
      </cc:Work>
    </rdf:RDF>
  </metadata>
  <g
     style="display:inline"
     id="layer1"
     inkscape:groupmode="layer"
     inkscape:label="Layer 1">
    <rect
       y="39.6875"
       x="0"
       height="258.15775"
       width="209.77678"
       id="rect228"
       style="fill:#e0ece4;stroke-width:0.264583" />
  </g>
  <g
     inkscape:label="Layer 2"
     id="layer2"
     inkscape:groupmode="layer">
    <ellipse
       ry="56.318451"
       rx="70.870537"
       cy="272.52084"
       cx="101.10862"
       id="path208"
       style="display:inline;fill:#009100;stroke-width:0.264583" />
  </g>
  <g
     inkscape:label="Layer 3"
     id="layer3"
     inkscape:groupmode="layer">
    <ellipse
       ry="43.65625"
       rx="70.303574"
       cy="304.45981"
       cx="70.681557"
       id="path210"
       style="display:inline;fill:#9ade00;stroke-width:0.264583" />
    <ellipse
       style="display:inline;fill:#ccff42;stroke-width:0.264583"
       id="path210-0"
       cx="152.3244"
       cy="317.87796"
       rx="70.303574"
       ry="43.65625" />
    <path
       id="path237"
       d="m 21.922619,289.15177 c 0.755952,-9.82736 1.419231,-19.66232 2.267857,-29.48213 0.04473,-0.51755 0.745303,-1.14458 0.377976,-1.5119 -0.437959,-0.43796 -3.180387,0.37797 -1.889881,0.37797 1.609556,0 3.103934,-1.29418 3.779762,-2.64583 0.0088,-0.0175 0.769604,-1.88988 0.377976,-1.88988 -0.281726,0 0.251984,0.50396 0.377976,0.75595 0.287694,0.57539 0,2.34494 0,3.02381 0,2.14186 0,4.28373 0,6.42559 0,2.74648 -0.09843,5.30741 -0.755952,7.9375 -0.17345,0.69381 0.225787,1.59051 0,2.26787 -0.152957,0.45887 -0.641056,1.0523 -0.755952,1.51188 -0.15749,0.62998 0.104993,1.25992 0,1.8899 -0.203979,1.22388 -0.471391,2.26353 -0.755953,3.40177 -0.24627,0.9851 -0.08003,6.88361 -0.377976,7.18156 -0.161747,0.16174 -0.912591,-0.0885 -1.133928,0 -0.523154,0.20926 -1.007937,0.50398 -1.511905,0.75594 z"
       style="fill:#804d00;stroke:#000000;stroke-width:0.264583px;stroke-linecap:butt;stroke-linejoin:miter;stroke-opacity:1" />
    <path
       id="path239"
       d="m 17.764881,258.53571 c 2.599269,-1.25415 12.131503,-0.0181 13.607143,-0.75595 0.793594,-0.3968 1.30793,-0.37798 2.267857,-0.37798 0.704358,0 3.752176,0.40557 4.157737,0 0.638513,-0.63851 -0.513511,-3.4161 -0.755952,-3.77976 -0.541935,-0.8129 -0.547809,-1.86434 -1.133927,-2.64583 -0.67011,-0.89348 -1.370502,-1.60707 -1.889882,-2.64584 -0.178181,-0.35635 -0.138922,-0.81519 -0.377976,-1.13393 -0.169037,-0.22538 -0.599678,-0.14356 -0.755954,-0.37797 -0.139774,-0.20967 0.112691,-0.53057 0,-0.75595 -0.580745,-1.16149 -1.860571,-2.35477 -2.645833,-3.40179 -0.936848,-1.24913 -1.823837,-5.22562 -2.645834,-6.04762 -0.316769,-0.31677 -1.339203,2.97004 -1.511903,3.40179 -0.759223,1.89805 -1.749852,3.4997 -2.645833,5.29167 -0.828978,1.65795 -1.671439,3.12443 -2.267858,4.91369 -0.239662,0.71898 -0.05291,1.99569 -0.377976,2.64583 -0.57633,1.15266 -0.299646,-0.6913 -0.755952,1.13393 -0.08354,0.33415 0.257389,2.01046 0,2.26785 -0.562479,0.56248 -0.755952,0.0286 -0.755952,1.13393"
       style="fill:#ff6600;stroke:#000000;stroke-width:0.264583px;stroke-linecap:butt;stroke-linejoin:miter;stroke-opacity:1" />
    <path
       id="path241"
       d="m 17.386905,240.01488 c 5.606113,-0.0694 10.997918,-0.75595 16.630953,-0.75595 0.51817,0 3.766828,0.39091 4.157736,0 0.30625,-0.30625 0.02897,-3.17001 0,-3.40179 -0.285154,-2.28124 -0.394562,-0.80571 -1.133927,-3.02381 -0.715878,-2.14763 -1.121926,-4.42021 -2.267858,-6.42559 -1.27014,-2.22275 -3.432667,-4.2195 -4.535715,-6.4256 -0.147608,-0.29522 -0.425685,-1.55961 -0.755951,-1.88988 -0.882968,-0.88297 -2.969025,3.63842 -3.401785,4.15774 -0.29082,0.34898 -0.861367,0.39253 -1.13393,0.75595 -0.525887,0.70119 -2.917792,4.70166 -3.401785,5.66964 -1.007937,2.01588 0.439117,0.28627 -1.133929,2.64584 -0.704596,1.05689 -1.465411,2.12837 -1.889881,3.40178 -0.257022,0.77107 -0.394182,2.30027 -0.755952,3.02381 -0.125992,0.25199 -0.178766,0.55674 -0.377976,0.75596 -0.08909,0.0891 -0.377977,-0.126 -0.377977,0 0,0.51947 0.251984,1.00793 0.377977,1.5119 z"
       style="fill:#ff6600;stroke:#000000;stroke-width:0.264583px;stroke-linecap:butt;stroke-linejoin:miter;stroke-opacity:1" />
  </g>
</svg>
